<svg xmlns="http://www.w3.org/2000/svg" viewBox="0 0 720 440" font-family="system-ui, sans-serif" font-size="12"><rect width="720" height="440" fill="white"/><text x="70" y="18" font-size="14" font-weight="700" fill="#26215C">Kaplan-Meier: composite_kidney_event by drug:sglt2i</text><line x1="70" y1="30" x2="70" y2="390" stroke="#333"/><line x1="70" y1="390" x2="520" y2="390" stroke="#333"/><line x1="66" y1="390.0" x2="70" y2="390.0" stroke="#333"/><text x="62" y="394.0" text-anchor="end" fill="#555">0.0</text><line x1="70" y1="390.0" x2="520" y2="390.0" stroke="#eee"/><line x1="66" y1="318.0" x2="70" y2="318.0" stroke="#333"/><text x="62" y="322.0" text-anchor="end" fill="#555">0.2</text><line x1="70" y1="318.0" x2="520" y2="318.0" stroke="#eee"/><line x1="66" y1="246.0" x2="70" y2="246.0" stroke="#333"/><text x="62" y="250.0" text-anchor="end" fill="#555">0.4</text><line x1="70" y1="246.0" x2="520" y2="246.0" stroke="#eee"/><line x1="66" y1="174.0" x2="70" y2="174.0" stroke="#333"/><text x="62" y="178.0" text-anchor="end" fill="#555">0.6</text><line x1="70" y1="174.0" x2="520" y2="174.0" stroke="#eee"/><line x1="66" y1="102.0" x2="70" y2="102.0" stroke="#333"/><text x="62" y="106.0" text-anchor="end" fill="#555">0.8</text><line x1="70" y1="102.0" x2="520" y2="102.0" stroke="#eee"/><line x1="66" y1="30.0" x2="70" y2="30.0" stroke="#333"/><text x="62" y="34.0" text-anchor="end" fill="#555">1.0</text><line x1="70" y1="30.0" x2="520" y2="30.0" stroke="#eee"/><line x1="70.0" y1="390" x2="70.0" y2="394" stroke="#333"/><text x="70.0" y="408.0" text-anchor="middle" fill="#555">0</text><line x1="160.0" y1="390" x2="160.0" y2="394" stroke="#333"/><text x="160.0" y="408.0" text-anchor="middle" fill="#555">134</text><line x1="250.0" y1="390" x2="250.0" y2="394" stroke="#333"/><text x="250.0" y="408.0" text-anchor="middle" fill="#555">268</text><line x1="340.0" y1="390" x2="340.0" y2="394" stroke="#333"/><text x="340.0" y="408.0" text-anchor="middle" fill="#555">402</text><line x1="430.0" y1="390" x2="430.0" y2="394" stroke="#333"/><text x="430.0" y="408.0" text-anchor="middle" fill="#555">536</text><line x1="520.0" y1="390" x2="520.0" y2="394" stroke="#333"/><text x="520.0" y="408.0" text-anchor="middle" fill="#555">670</text><text x="295" y="432" text-anchor="middle" fill="#555">Days from index</text><text x="16" y="210" text-anchor="middle" fill="#555" transform="rotate(-90 16 210)">Survival probability</text><path d="M 70.0 30.0 L 194.3 30.0 L 194.3 45.0 L 200.3 45.0 L 200.3 60.0 L 239.9 60.0 L 239.9 90.0 L 286.9 90.0 L 286.9 105.0 L 361.5 105.0 L 361.5 120.0 L 366.9 120.0 L 366.9 135.0 L 520.0 135.0" fill="none" stroke="#534AB7" stroke-width="2"/><rect x="536" y="29" width="11" height="11" fill="#534AB7"/><text x="552" y="38" fill="#333">sglt2i exposed</text><text x="552" y="53" fill="#777" font-size="11">n=24, events=7, median=n/r</text><path d="M 70.0 30.0 L 174.8 30.0 L 174.8 45.0 L 182.8 45.0 L 182.8 60.0 L 186.9 60.0 L 186.9 75.0 L 218.4 75.0 L 218.4 90.0 L 246.6 90.0 L 246.6 105.0 L 264.8 105.0 L 264.8 120.0 L 392.4 120.0 L 392.4 135.0 L 475.0 135.0 L 475.0 150.0 L 476.3 150.0 L 476.3 165.0 L 481.0 165.0 L 481.0 180.0 L 487.8 180.0 L 487.8 195.0 L 520.0 195.0 L 520.0 210.0 L 520.0 210.0" fill="none" stroke="#1D9E75" stroke-width="2"/><rect x="536" y="71" width="11" height="11" fill="#1D9E75"/><text x="552" y="80" fill="#333">sglt2i unexposed</text><text x="552" y="95" fill="#777" font-size="11">n=24, events=12, median=670d</text><text x="536" y="132" fill="#26215C" font-size="12">Log-rank: chi2=1.72, p = 0.190</text></svg>